<svg width="57" height="58" viewBox="0 0 57 58" fill="none" xmlns="http://www.w3.org/2000/svg">
<path d="M0 4C0 1.79086 1.79086 0 4 0H53C55.2091 0 57 1.79086 57 4V54C57 56.2091 55.2091 58 53 58H4C1.79086 58 0 56.2091 0 54V4Z" fill="#F5DE19"/>
<path d="M35.9613 46.6924C37.2142 45.9499 38.8256 46.5054 39.9738 47.4013C40.1316 47.5245 40.296 47.6397 40.4664 47.7464C41.4029 48.3328 42.4831 48.638 43.5826 48.6268C45.8015 48.6268 47.2204 47.4979 47.2204 45.9339C47.2204 44.0696 45.7629 43.4026 43.32 42.3151L41.9805 41.731C38.1127 40.0552 35.5477 37.9569 35.5477 33.5199C35.5477 29.4329 38.6012 26.3196 43.3913 26.3196C44.9419 26.2056 46.4911 26.5588 47.8458 27.3349C48.592 27.7624 49.2609 28.3079 49.8297 28.9469C50.6266 29.8423 50.2487 31.1786 49.2439 31.8322L48.6836 32.1966C47.7228 32.8217 46.4078 32.3394 45.4597 31.6951V31.6951C44.8457 31.2778 44.1215 31.0603 43.3831 31.0714C43.061 31.0386 42.7357 31.0744 42.4279 31.1766C42.1201 31.2788 41.8367 31.4451 41.5955 31.6649C41.3544 31.8847 41.1609 32.1533 41.0274 32.4534C40.8939 32.7535 40.8233 33.0786 40.8202 33.408C40.8202 35.0424 41.8156 35.7052 44.1139 36.7223L45.4534 37.3064C50.0053 39.2929 52.5784 41.3167 52.5784 45.8676C52.5784 50.7749 48.79 53.4636 43.7027 53.4636C41.7206 53.5921 39.7442 53.1342 38.0121 52.145C36.9585 51.5434 36.0227 50.7608 35.2431 49.8375C34.3928 48.8304 34.8274 47.3644 35.9613 46.6924V46.6924ZM16.9881 47.2532C18.2838 46.4537 19.8051 47.0971 21.0189 48.0162C21.4903 48.3732 22.0626 48.5874 22.8143 48.5874C24.5731 48.5874 25.6846 47.8873 25.6846 45.1634V29.3083C25.6846 27.8293 26.8836 26.6303 28.3626 26.6303V26.6303C29.8416 26.6303 31.0406 27.8293 31.0406 29.3083V45.2359C31.0406 50.8784 27.7834 53.447 23.0423 53.447C21.3664 53.5402 19.702 53.1152 18.2679 52.2279C17.4933 51.7487 16.8054 51.1466 16.2279 50.4489C15.3776 49.4216 15.8532 47.9535 16.9881 47.2532V47.2532Z" fill="black"/>
</svg>
