<svg width="62" height="62" viewBox="0 0 62 62" fill="none" xmlns="http://www.w3.org/2000/svg">
<path d="M61.7074 26.4793C60.857 20.7471 58.4227 15.3662 54.6788 10.943C50.9349 6.51985 46.0301 3.2301 40.5171 1.44445C38.4176 0.777743 36.256 0.325393 34.0653 0.094322C33.4832 0.0345624 29.4793 -0.0318374 28.9747 0.0168556C28.8419 0.0168556 28.4169 0.0699755 28.0362 0.100962C23.623 0.528127 19.3523 1.89517 15.5114 4.11017C11.6704 6.32518 8.34818 9.33683 5.76801 12.9426C2.88177 16.9488 1.00556 21.5926 0.2989 26.4793C0.0608357 27.9689 -0.0347688 29.4778 0.013382 30.9856C-0.0373058 32.4954 0.056076 34.0065 0.29226 35.4986C1.14115 41.2319 3.57483 46.614 7.31892 51.0382C11.063 55.4623 15.9686 58.7525 21.4826 60.5378C23.6114 61.2123 25.8037 61.667 28.0251 61.8946C30.0025 61.9986 31.9839 61.9986 33.9613 61.8946C37.8547 61.5139 41.6422 60.4065 45.1275 58.63C45.6587 58.3577 45.7627 58.2847 45.6896 58.2249C45.6166 58.1652 43.3701 55.1418 40.6433 51.4588L35.6877 44.7657L29.4904 35.576C26.073 30.5252 23.2621 26.3952 23.2377 26.3952C23.2134 26.3952 23.189 30.4699 23.178 35.4565C23.336 38.5548 23.2916 41.66 23.0452 44.7525C22.9388 44.9939 22.7496 45.1893 22.5118 45.3036C22.317 45.401 22.1466 45.4187 21.2325 45.4187H20.1856L19.9067 45.2438C19.7339 45.1352 19.5933 44.9824 19.4994 44.8011L19.3733 44.5289L19.3843 32.3844L19.4043 20.2333L19.5902 19.9965C19.7156 19.849 19.8653 19.724 20.0329 19.6269C20.2807 19.5073 20.3781 19.4941 21.425 19.4941C22.6623 19.4941 22.8681 19.5428 23.1957 19.8947C23.2864 19.9921 26.6485 25.0539 30.6701 31.1538C34.6917 37.2537 40.1873 45.5824 42.8964 49.6704L47.7989 57.1028L48.0468 56.939C50.4095 55.368 52.5511 53.4877 54.4145 51.3481C58.3187 46.8802 60.8509 41.3808 61.7074 35.5096C61.9443 34.014 62.0377 32.4991 61.9863 30.9856C62.0367 29.4781 61.9433 27.9691 61.7074 26.4793ZM42.3165 30.585L42.2988 41.4767L40.3777 38.533L38.4521 35.5893V27.6656C38.4521 22.5484 38.4764 19.6711 38.5118 19.5317C38.555 19.3705 38.6305 19.2197 38.7336 19.0885C38.8367 18.9572 38.9653 18.8482 39.1117 18.7681C39.3596 18.6397 39.4503 18.6287 40.402 18.6287C41.2874 18.6287 41.4556 18.6397 41.6548 18.7504C41.7996 18.8224 41.9285 18.9229 42.0338 19.0457C42.1391 19.1685 42.2187 19.3112 42.2679 19.4653C42.3165 19.6291 42.3276 22.9955 42.3165 30.585Z" fill="black"/>
</svg>
