<svg width="33" height="35" viewBox="0 0 33 35" fill="none" xmlns="http://www.w3.org/2000/svg">
<g clip-path="url(#clip0_17_103)">
<path d="M16.0772 17.5883C14.3275 14.3799 14.7002 10.4974 16.7277 7.76039C17.3068 6.97507 16.5361 5.85245 15.6352 6.15145C14.5837 6.50651 13.5611 7.05966 12.6123 7.83128C9.0777 10.7106 7.83144 15.9178 9.64784 20.2238C12.0672 25.9467 18.5336 28.0696 23.5253 25.0187C24.1451 24.6399 24.7001 24.2048 25.2124 23.712C25.9159 23.0303 25.3963 21.7662 24.4509 21.9007C21.0851 22.4121 17.7646 20.703 16.0772 17.5883V17.5883Z" fill="white"/>
</g>
<defs>
<clipPath id="clip0_17_103">
<rect width="23.8785" height="24.5679" fill="white" transform="matrix(0.85325 -0.521502 0.478802 0.877923 0 13.0355)"/>
</clipPath>
</defs>
</svg>
