<svg width="57" height="65" viewBox="0 0 57 65" fill="none" xmlns="http://www.w3.org/2000/svg">
<path d="M28.5 64.2762C27.6329 64.2765 26.781 64.0485 26.0299 63.615L18.1698 58.9618C16.9967 58.3053 17.5683 58.0734 17.9563 57.938C19.2039 57.5526 20.3984 57.0127 21.5122 56.3311C21.6054 56.2879 21.7081 56.2693 21.8105 56.2769C21.913 56.2846 22.0117 56.3182 22.0976 56.3747L28.1373 59.9627C28.2498 60.0222 28.3751 60.0533 28.5023 60.0533C28.6295 60.0533 28.7548 60.0222 28.8673 59.9627L52.4203 46.3681C52.5305 46.3021 52.6216 46.2086 52.6848 46.0967C52.748 45.9848 52.781 45.8584 52.7807 45.7299V18.5362C52.7807 18.4056 52.7472 18.2773 52.6833 18.1635C52.6193 18.0497 52.5272 17.9543 52.4157 17.8865L28.8627 4.30338C28.7516 4.24082 28.6263 4.20796 28.4989 4.20796C28.3714 4.20796 28.2461 4.24082 28.135 4.30338L4.59583 17.8911C4.48354 17.9575 4.39031 18.0518 4.32516 18.1648C4.26001 18.2778 4.22514 18.4057 4.22394 18.5362V45.7185C4.22426 45.8467 4.25865 45.9725 4.3236 46.083C4.38854 46.1935 4.4817 46.2848 4.59353 46.3475L11.0534 50.0755C14.5542 51.8248 16.6983 49.7633 16.6983 47.6927V20.8547C16.6983 20.7643 16.7161 20.6747 16.7507 20.5912C16.7853 20.5076 16.836 20.4317 16.9 20.3677C16.9639 20.3038 17.0399 20.2531 17.1234 20.2185C17.207 20.1839 17.2965 20.166 17.387 20.166H20.3713C20.5539 20.166 20.7291 20.2386 20.8582 20.3677C20.9874 20.4969 21.0599 20.6721 21.0599 20.8547V47.695C21.0599 52.3666 18.5164 55.0409 14.0859 55.0409C12.1745 55.0742 10.2931 54.5631 8.66135 53.5672L2.47009 50.0158C1.71848 49.5782 1.09483 48.951 0.661399 48.1969C0.227967 47.4428 -8.32079e-05 46.5882 1.63259e-05 45.7185V18.5362C-0.00221773 17.665 0.224867 16.8087 0.658452 16.0531C1.09204 15.2976 1.71684 14.6695 2.47009 14.2319L26.0253 0.632696C26.7841 0.217575 27.6351 0 28.5 0C29.3649 0 30.2159 0.217575 30.9747 0.632696L54.5276 14.2319C55.2791 14.6687 55.903 15.295 56.3368 16.0483C56.7706 16.8015 56.9993 17.6554 57 18.5247V45.7185C56.9987 46.5882 56.7698 47.4425 56.3361 48.1964C55.9024 48.9503 55.2789 49.5776 54.5276 50.0158L30.9747 63.615C30.2223 64.0492 29.3687 64.2772 28.5 64.2762Z" fill="#83CD29"/>
<path d="M24.0327 36.621C24.0327 36.4383 24.1053 36.2632 24.2344 36.134C24.3636 36.0048 24.5387 35.9323 24.7214 35.9323H27.7677C27.9304 35.9328 28.0878 35.991 28.2117 36.0965C28.3357 36.2019 28.4183 36.3479 28.4449 36.5085C28.904 39.6099 30.2814 41.1732 36.5094 41.1732C41.4702 41.1732 43.5844 40.0506 43.5844 37.4175C43.5844 35.9001 42.9853 34.773 35.2743 34.0178C28.8282 33.3796 24.8431 31.9517 24.8431 26.8004C24.8431 22.0484 28.8489 19.2134 35.5636 19.2134C43.1092 19.2134 46.8442 21.8327 47.3171 27.4523C47.3243 27.5461 47.3122 27.6404 47.2816 27.7294C47.2509 27.8184 47.2024 27.9001 47.1389 27.9696C47.0755 28.0391 46.9985 28.0948 46.9126 28.1334C46.8268 28.1719 46.734 28.1925 46.6399 28.1938H43.5729C43.4191 28.1916 43.2704 28.138 43.1506 28.0415C43.0307 27.945 42.9467 27.8111 42.9118 27.6612C42.1795 24.3991 40.3866 23.3569 35.5659 23.3569C30.1482 23.3569 29.5192 25.2439 29.5192 26.658C29.5192 28.3706 30.263 28.871 37.5768 29.8374C44.8149 30.7947 48.2537 32.1491 48.2537 37.2362C48.2537 42.3692 43.9747 45.3076 36.5116 45.3076C26.1929 45.3213 24.0327 40.5901 24.0327 36.621Z" fill="#83CD29"/>
</svg>
