<svg width="65" height="58" viewBox="0 0 65 58" fill="none" xmlns="http://www.w3.org/2000/svg">
<path d="M32.5 34.6647C35.7052 34.6647 38.3036 32.0663 38.3036 28.8611C38.3036 25.6559 35.7052 23.0575 32.5 23.0575C29.2948 23.0575 26.6964 25.6559 26.6964 28.8611C26.6964 32.0663 29.2948 34.6647 32.5 34.6647Z" fill="#00D8FF"/>
<path d="M32.5 42.1675C25.5244 42.3363 18.5663 41.396 11.8857 39.3818C8.79966 38.4035 5.92135 36.8625 3.39625 34.8365C2.43269 34.1443 1.63027 33.252 1.04404 32.2205C0.457815 31.1891 0.101654 30.0431 0 28.8611C0 25.0238 4.21571 21.2631 11.2775 18.8024C18.1367 16.622 25.3034 15.5652 32.5 15.6731C39.6006 15.5739 46.6713 16.6115 53.4439 18.7466C56.416 19.6942 59.1967 21.1607 61.6571 23.0784C62.6042 23.7383 63.3946 24.5983 63.9723 25.5976C64.55 26.597 64.9008 27.7111 65 28.8611C65 32.8493 60.2875 36.8909 52.6964 39.4027C46.1452 41.3513 39.3339 42.2837 32.5 42.1675ZM32.5 18.4495C25.6149 18.3575 18.7591 19.3621 12.1898 21.4256C5.68982 23.6936 2.77643 26.795 2.77643 28.8541C2.77643 31.0084 5.90804 34.3954 12.7841 36.747C19.1752 38.6642 25.8296 39.5566 32.5 39.3911C39.0381 39.508 45.5555 38.6234 51.8259 36.7679C58.9643 34.4024 62.2143 31.0107 62.2143 28.8611C62.0972 28.1234 61.8283 27.418 61.4248 26.7895C61.0212 26.161 60.4917 25.623 59.8696 25.2095C57.6683 23.5082 55.1843 22.2084 52.5316 21.3699C46.0526 19.3357 39.2901 18.3498 32.5 18.4495Z" fill="#00D8FF"/>
<path d="M19.3143 57.807C18.2314 57.8318 17.1612 57.5691 16.2129 57.0456C12.8886 55.1281 11.7372 49.5984 13.1323 42.2511C14.6706 35.2197 17.336 28.4834 21.0252 22.3031C24.4858 16.1028 28.9162 10.4961 34.1482 5.69555C36.4538 3.59398 39.1135 1.91753 42.0039 0.743946C43.0494 0.253984 44.1899 0 45.3445 0C46.4991 0 47.6395 0.253984 48.685 0.743946C52.1416 2.73573 53.2861 8.83645 51.6727 16.6666C50.0869 23.3165 47.4908 29.6839 43.9748 35.5468C40.636 41.6739 36.3452 47.2318 31.2627 52.0127C28.8734 54.1967 26.1006 55.9195 23.0843 57.0943C21.8767 57.5425 20.6021 57.7834 19.3143 57.807ZM23.4302 23.682C19.9111 29.6001 17.3566 36.0406 15.8623 42.7618C14.5786 49.5288 15.8113 53.5982 17.6034 54.6336C19.4606 55.7084 23.9688 54.6893 29.4427 49.9072C34.2945 45.3269 38.39 40.0067 41.5768 34.1447C44.945 28.5396 47.4354 22.452 48.9613 16.0932C50.4795 8.7227 49.1679 4.20984 47.3061 3.13734C46.6083 2.86997 45.8626 2.75029 45.1162 2.78585C44.3698 2.82141 43.6389 3.01145 42.9697 3.34395C40.3968 4.40564 38.0314 5.91291 35.9822 7.79645C30.9834 12.3947 26.7514 17.7622 23.4464 23.6959L23.4302 23.682Z" fill="#00D8FF"/>
<path d="M45.6788 57.8372C42.5332 57.8372 38.5381 55.9336 34.3781 52.3563C29.0543 47.5121 24.5491 41.8388 21.0368 35.5561C17.3939 29.4609 14.7496 22.822 13.2043 15.8913C12.5341 12.8421 12.41 9.69815 12.8375 6.60557C12.9364 5.45833 13.2857 4.34676 13.8609 3.34922C14.4361 2.35168 15.2231 1.49247 16.1665 0.832176C19.6184 -1.16657 25.4754 0.88789 31.4531 6.19468C36.4223 10.889 40.6422 16.3177 43.9656 22.2915C47.6062 28.2444 50.2782 34.7379 51.8816 41.5291C52.5807 44.6902 52.6885 47.9534 52.1997 51.1538C52.0834 52.334 51.7132 53.4751 51.1146 54.4989C50.5159 55.5227 49.703 56.4049 48.7315 57.085C47.7986 57.6021 46.745 57.8617 45.6788 57.8372ZM23.4395 34.1586C26.8089 40.1628 31.1125 45.5925 36.1888 50.2438C41.4097 54.7357 45.5511 55.7015 47.3316 54.6545C49.1888 53.575 50.5584 49.169 49.147 42.0399C47.6006 35.556 45.0378 29.3577 41.5536 23.675C38.3821 17.9576 34.3542 12.7594 29.6098 8.26075C23.9827 3.26503 19.4188 2.14843 17.5593 3.22557C16.9798 3.69654 16.5041 4.28257 16.1625 4.94665C15.8209 5.61072 15.6207 6.33842 15.5745 7.08378C15.2054 9.84184 15.3256 12.6434 15.9297 15.3597C17.4161 21.9877 19.9521 28.3356 23.4418 34.1632L23.4395 34.1586Z" fill="#00D8FF"/>
</svg>
